<?xml version="1.0" standalone="no"?>
<!DOCTYPE svg PUBLIC "-//W3C//DTD SVG 20010904//EN"
 "http://www.w3.org/TR/2001/REC-SVG-20010904/DTD/svg10.dtd">
<svg version="1.0" xmlns="http://www.w3.org/2000/svg"
 width="240.000000pt" height="240.000000pt" viewBox="0 0 240.000000 240.000000"
 preserveAspectRatio="xMidYMid meet">

<g transform="translate(0.000000,240.000000) scale(0.100000,-0.100000)"
fill="#1c1c1c" stroke="none">
<path d="M401 2389 c-187 -36 -355 -208 -391 -398 -6 -33 -10 -333 -10 -790 0
-601 3 -748 15 -804 40 -188 187 -337 377 -382 93 -22 1523 -22 1616 0 187 44
333 189 377 376 22 95 22 1523 0 1618 -45 191 -205 345 -394 381 -66 12 -1526
12 -1590 -1z m333 -332 c49 -28 75 -62 87 -116 24 -109 -59 -213 -171 -213
-101 0 -173 74 -173 179 0 131 144 215 257 150z m66 -1007 l0 -550 -150 0
-150 0 0 550 0 550 150 0 150 0 0 -550z m500 469 l0 -81 45 47 c26 27 74 60
113 78 62 30 75 32 172 32 87 0 113 -4 152 -22 101 -46 182 -152 207 -271 7
-34 11 -188 11 -427 l0 -375 -149 0 -150 0 -3 318 c-3 278 -5 322 -21 357 -40
88 -116 134 -202 121 -59 -10 -106 -46 -140 -107 l-30 -54 -3 -317 -3 -318
-150 0 -149 0 0 550 0 550 150 0 150 0 0 -81z"/>
</g>
</svg>
